<svg width="24" height="25" viewBox="0 0 24 25" fill="none" xmlns="http://www.w3.org/2000/svg">
<path fill-rule="evenodd" clip-rule="evenodd" d="M8.67233 8.04297H15.3283C18.7023 8.04297 20.3903 8.04297 21.3383 9.02997C22.2863 10.017 22.0623 11.541 21.6163 14.59L21.1943 17.482C20.8443 19.873 20.6693 21.069 19.7723 21.785C18.8753 22.501 17.5523 22.501 14.9053 22.501H9.09533C6.44933 22.501 5.12533 22.501 4.22833 21.785C3.33133 21.069 3.15633 19.873 2.80633 17.482L2.38433 14.59C1.93733 11.541 1.71433 10.017 2.66233 9.02997C3.61033 8.04297 5.29833 8.04297 8.67233 8.04297ZM8.00033 18.501C8.00033 18.087 8.37333 17.751 8.83333 17.751H15.1673C15.6273 17.751 16.0003 18.087 16.0003 18.501C16.0003 18.915 15.6273 19.251 15.1673 19.251H8.83333C8.37333 19.251 8.00033 18.915 8.00033 18.501Z" fill="#8E9BAE"/>
<path opacity="0.4" d="M8.51092 2.5H15.4909C15.7239 2.5 15.9009 2.5 16.0579 2.515C17.1659 2.624 18.0719 3.29 18.4569 4.187H5.54492C5.92992 3.29 6.83692 2.624 7.94492 2.515C8.09992 2.5 8.27892 2.5 8.51092 2.5Z" fill="#8E9BAE"/>
<path opacity="0.7" d="M6.31095 5.22266C4.92095 5.22266 3.78095 6.06266 3.40095 7.17566L3.37695 7.24566C3.78034 7.12912 4.19228 7.04453 4.60895 6.99266C5.68895 6.85466 7.05495 6.85466 8.64095 6.85466H15.533C17.119 6.85466 18.485 6.85466 19.565 6.99266C19.985 7.04666 20.399 7.12566 20.797 7.24566L20.774 7.17566C20.394 6.06166 19.254 5.22266 17.863 5.22266H6.31095Z" fill="#8E9BAE"/>
</svg>
