<svg width="14" height="14" viewBox="0 0 14 14" fill="none" xmlns="http://www.w3.org/2000/svg">
<g clip-path="url(#clip0_13977_10462)">
<path d="M3.76917 6.09183C3.76917 4.49278 3.76917 3.69269 4.26618 3.19624C4.76264 2.69922 5.56273 2.69922 7.16178 2.69922H8.85808C10.4571 2.69922 11.2572 2.69922 11.7537 3.19624C12.2507 3.69269 12.2507 4.49278 12.2507 6.09183V8.91901C12.2507 10.5181 12.2507 11.3182 11.7537 11.8146C11.2572 12.3116 10.4571 12.3116 8.85808 12.3116H7.16178C5.56273 12.3116 4.76264 12.3116 4.26618 11.8146C3.76917 11.3182 3.76917 10.5181 3.76917 8.91901V6.09183Z" stroke="white" stroke-width="0.848153"/>
<path d="M3.77016 10.6124C3.32027 10.6124 2.88881 10.4337 2.57069 10.1156C2.25257 9.79745 2.07385 9.36599 2.07385 8.9161V5.52348C2.07385 3.39123 2.07385 2.32482 2.73654 1.66269C3.39923 1.00057 4.46508 1 6.59734 1H8.85908C9.30897 1 9.74043 1.17872 10.0585 1.49684C10.3767 1.81496 10.5554 2.24642 10.5554 2.69631" stroke="white" stroke-width="0.848153"/>
</g>
<defs>
<clipPath id="clip0_13977_10462">
<rect width="13.5705" height="13.5705" fill="white" transform="translate(0.251587 0.179688)"/>
</clipPath>
</defs>
</svg>
