<svg width="46" height="45" viewBox="0 0 46 45" fill="none" xmlns="http://www.w3.org/2000/svg">
<rect x="0.5" width="45" height="45" rx="10" fill="#1C1D1F"/>
<path d="M30.2701 15.83C28.9401 15.21 27.5001 14.76 26.0001 14.5C25.9737 14.5004 25.9486 14.5112 25.9301 14.53C25.7501 14.86 25.5401 15.29 25.4001 15.62C23.8091 15.3802 22.1911 15.3802 20.6001 15.62C20.4601 15.28 20.2501 14.86 20.0601 14.53C20.0501 14.51 20.0201 14.5 19.9901 14.5C18.4901 14.76 17.0601 15.21 15.7201 15.83C15.7101 15.83 15.7001 15.84 15.6901 15.85C12.9701 19.92 12.2201 23.88 12.5901 27.8C12.5901 27.82 12.6001 27.84 12.6201 27.85C14.4201 29.17 16.1501 29.97 17.8601 30.5C17.8901 30.51 17.9201 30.5 17.9301 30.48C18.3301 29.93 18.6901 29.35 19.0001 28.74C19.0201 28.7 19.0001 28.66 18.9601 28.65C18.3901 28.43 17.8501 28.17 17.3201 27.87C17.2801 27.85 17.2801 27.79 17.3101 27.76C17.4201 27.68 17.5301 27.59 17.6401 27.51C17.6601 27.49 17.6901 27.49 17.7101 27.5C21.1501 29.07 24.8601 29.07 28.2601 27.5C28.2801 27.49 28.3101 27.49 28.3301 27.51C28.4401 27.6 28.5501 27.68 28.6601 27.77C28.7001 27.8 28.7001 27.86 28.6501 27.88C28.1301 28.19 27.5801 28.44 27.0101 28.66C26.9701 28.67 26.9601 28.72 26.9701 28.75C27.2901 29.36 27.6501 29.94 28.0401 30.49C28.0701 30.5 28.1001 30.51 28.1301 30.5C29.8501 29.97 31.5801 29.17 33.3801 27.85C33.4001 27.84 33.4101 27.82 33.4101 27.8C33.8501 23.27 32.6801 19.34 30.3101 15.85C30.3001 15.84 30.2901 15.83 30.2701 15.83ZM19.5201 25.41C18.4901 25.41 17.6301 24.46 17.6301 23.29C17.6301 22.12 18.4701 21.17 19.5201 21.17C20.5801 21.17 21.4201 22.13 21.4101 23.29C21.4101 24.46 20.5701 25.41 19.5201 25.41ZM26.4901 25.41C25.4601 25.41 24.6001 24.46 24.6001 23.29C24.6001 22.12 25.4401 21.17 26.4901 21.17C27.5501 21.17 28.3901 22.13 28.3801 23.29C28.3801 24.46 27.5501 25.41 26.4901 25.41Z" fill="white"/>
</svg>
