<svg width="45" height="45" viewBox="0 0 45 45" fill="none" xmlns="http://www.w3.org/2000/svg">
<rect width="45" height="45" rx="10" fill="#1C1D1F"/>
<path d="M25.5 14H19.5C16.4624 14 14 16.4624 14 19.5V25.5C14 28.5376 16.4624 31 19.5 31H25.5C28.5376 31 31 28.5376 31 25.5V19.5C31 16.4624 28.5376 14 25.5 14Z" stroke="white" stroke-width="1.5" stroke-linecap="round" stroke-linejoin="round"/>
<path d="M22.4996 26.1065C24.4911 26.1065 26.1056 24.4921 26.1056 22.5005C26.1056 20.509 24.4911 18.8945 22.4996 18.8945C20.508 18.8945 18.8936 20.509 18.8936 22.5005C18.8936 24.4921 20.508 26.1065 22.4996 26.1065Z" stroke="white" stroke-width="1.5" stroke-linecap="round" stroke-linejoin="round"/>
<path d="M27.3943 18.6381C27.9631 18.6381 28.4243 18.177 28.4243 17.6081C28.4243 17.0393 27.9631 16.5781 27.3943 16.5781C26.8254 16.5781 26.3643 17.0393 26.3643 17.6081C26.3643 18.177 26.8254 18.6381 27.3943 18.6381Z" fill="white"/>
</svg>
