<svg width="14" height="15" viewBox="0 0 14 15" fill="none" xmlns="http://www.w3.org/2000/svg">
<path fill-rule="evenodd" clip-rule="evenodd" d="M1.07385 7.93707C1.07385 9.51168 1.69936 11.0218 2.81278 12.1352C3.9262 13.2486 5.43632 13.8741 7.01093 13.8741C8.58553 13.8741 10.0957 13.2486 11.2091 12.1352C12.3225 11.0218 12.948 9.51168 12.948 7.93707C12.948 6.36246 12.3225 4.85235 11.2091 3.73893C10.0957 2.62551 8.58553 2 7.01093 2C5.43632 2 3.9262 2.62551 2.81278 3.73893C1.69936 4.85235 1.07385 6.36246 1.07385 7.93707ZM11.9302 7.93707C11.9302 9.24175 11.4119 10.493 10.4894 11.4155C9.56684 12.3381 8.3156 12.8564 7.01093 12.8564C5.70625 12.8564 4.45501 12.3381 3.53246 11.4155C2.60992 10.493 2.09164 9.24175 2.09164 7.93707C2.09164 6.6324 2.60992 5.38116 3.53246 4.45861C4.45501 3.53606 5.70625 3.01778 7.01093 3.01778C8.3156 3.01778 9.56684 3.53606 10.4894 4.45861C11.4119 5.38116 11.9302 6.6324 11.9302 7.93707Z" fill="white"/>
<path fill-rule="evenodd" clip-rule="evenodd" d="M4.46643 7.93375C4.46643 11.002 5.47811 13.5316 7.01089 13.5316C8.54367 13.5316 9.55535 11.002 9.55535 7.93375C9.55535 4.86547 8.54367 2.33594 7.01089 2.33594C5.47811 2.33594 4.46643 4.86547 4.46643 7.93375ZM8.53757 7.93375C8.53757 10.4864 7.72673 12.5138 7.01089 12.5138C6.29505 12.5138 5.48421 10.4864 5.48421 7.93375C5.48421 5.38115 6.29505 3.35372 7.01089 3.35372C7.72673 3.35372 8.53757 5.38115 8.53757 7.93375Z" fill="white"/>
<path d="M2.66837 4.85999L3.35096 4.10547C3.41881 4.16699 3.49232 4.22738 3.57148 4.28663C4.43388 4.93259 5.81061 5.33156 7.31353 5.33156C8.59662 5.33156 9.79218 5.04183 10.6593 4.54583C10.8688 4.42596 11.054 4.29704 11.215 4.15907L11.8759 4.93327C11.6651 5.11375 11.4281 5.27886 11.1648 5.42859C10.1362 6.01755 8.76693 6.34866 7.31353 6.34866C5.6023 6.34866 4.01252 5.88863 2.96081 5.10086C2.85964 5.02515 2.76206 4.94477 2.66837 4.85999ZM2.66837 11.0223L3.35096 11.7768C3.41881 11.7153 3.49232 11.6549 3.57148 11.5957C4.43388 10.9497 5.81061 10.5508 7.31353 10.5508C8.59662 10.5508 9.79218 10.8405 10.6593 11.3365C10.8688 11.4564 11.054 11.5853 11.215 11.7232L11.8759 10.949C11.6545 10.7626 11.4165 10.5968 11.1648 10.4537C10.1362 9.86477 8.76693 9.53365 7.31353 9.53365C5.6023 9.53365 4.01252 9.99369 2.96081 10.7815C2.85964 10.8572 2.76206 10.9375 2.66837 11.0223ZM1.41174 8.44462V7.42684H12.6074V8.44462H1.41174Z" fill="white"/>
</svg>
