<svg width="24" height="24" viewBox="0 0 24 24" fill="none" xmlns="http://www.w3.org/2000/svg">
<path opacity="0.5" d="M12 20C9.87827 20 7.84344 19.1571 6.34315 17.6569C4.84285 16.1566 4 14.1217 4 12C4 9.87827 4.84285 7.84344 6.34315 6.34315C7.84344 4.84285 9.87827 4 12 4V20Z" fill="white"/>
<path fill-rule="evenodd" clip-rule="evenodd" d="M16.47 8.46934C16.3295 8.60997 16.2507 8.80059 16.2507 8.99934C16.2507 9.19809 16.3295 9.38871 16.47 9.52934L18.19 11.2493H10C9.80109 11.2493 9.61032 11.3284 9.46967 11.469C9.32902 11.6097 9.25 11.8004 9.25 11.9993C9.25 12.1983 9.32902 12.389 9.46967 12.5297C9.61032 12.6703 9.80109 12.7493 10 12.7493H18.19L16.47 14.4693C16.3963 14.538 16.3372 14.6208 16.2962 14.7128C16.2552 14.8048 16.2332 14.9041 16.2314 15.0048C16.2296 15.1055 16.2482 15.2055 16.2859 15.2989C16.3236 15.3923 16.3797 15.4772 16.451 15.5484C16.5222 15.6196 16.607 15.6757 16.7004 15.7135C16.7938 15.7512 16.8938 15.7697 16.9945 15.7679C17.0952 15.7662 17.1945 15.7441 17.2865 15.7031C17.3785 15.6621 17.4613 15.603 17.53 15.5293L20.53 12.5293C20.6705 12.3887 20.7493 12.1981 20.7493 11.9993C20.7493 11.8006 20.6705 11.61 20.53 11.4693L17.53 8.46934C17.3894 8.32889 17.1988 8.25 17 8.25C16.8012 8.25 16.6106 8.32889 16.47 8.46934Z" fill="white"/>
</svg>
