<svg width="24" height="25" viewBox="0 0 24 25" fill="none" xmlns="http://www.w3.org/2000/svg">
<path opacity="0.5" d="M2 12.5C2 7.786 2 5.429 3.464 3.964C4.93 2.5 7.286 2.5 12 2.5C16.714 2.5 19.071 2.5 20.535 3.964C22 5.43 22 7.786 22 12.5C22 17.214 22 19.571 20.535 21.035C19.072 22.5 16.714 22.5 12 22.5C7.286 22.5 4.929 22.5 3.464 21.035C2 19.572 2 17.214 2 12.5Z" fill="#8E9BAE"/>
<path d="M14.5008 11.25C14.3019 11.25 14.1111 11.171 13.9705 11.0303C13.8298 10.8897 13.7508 10.6989 13.7508 10.5C13.7508 10.3011 13.8298 10.1103 13.9705 9.96967C14.1111 9.82902 14.3019 9.75 14.5008 9.75H17.0008C17.1997 9.75 17.3905 9.82902 17.5312 9.96967C17.6718 10.1103 17.7508 10.3011 17.7508 10.5V13C17.7508 13.1989 17.6718 13.3897 17.5312 13.5303C17.3905 13.671 17.1997 13.75 17.0008 13.75C16.8019 13.75 16.6111 13.671 16.4705 13.5303C16.3298 13.3897 16.2508 13.1989 16.2508 13V12.31L14.2378 14.323C13.9097 14.6509 13.4647 14.8351 13.0008 14.8351C12.5369 14.8351 12.092 14.6509 11.7638 14.323L10.1778 12.737C10.1546 12.7137 10.127 12.6952 10.0966 12.6826C10.0663 12.67 10.0337 12.6636 10.0008 12.6636C9.96794 12.6636 9.93538 12.67 9.90501 12.6826C9.87463 12.6952 9.84705 12.7137 9.82382 12.737L7.53082 15.03C7.38865 15.1625 7.2006 15.2346 7.0063 15.2312C6.812 15.2277 6.62661 15.149 6.4892 15.0116C6.35179 14.8742 6.27308 14.6888 6.26965 14.4945C6.26622 14.3002 6.33834 14.1122 6.47082 13.97L8.76382 11.677C9.09198 11.3491 9.53691 11.1649 10.0008 11.1649C10.4647 11.1649 10.9097 11.3491 11.2378 11.677L12.8238 13.263C12.847 13.2863 12.8746 13.3048 12.905 13.3174C12.9354 13.33 12.9679 13.3364 13.0008 13.3364C13.0337 13.3364 13.0663 13.33 13.0966 13.3174C13.127 13.3048 13.1546 13.2863 13.1778 13.263L15.1898 11.25H14.5008Z" fill="#8E9BAE"/>
</svg>
