<svg width="28" height="29" viewBox="0 0 28 29" fill="none" xmlns="http://www.w3.org/2000/svg">
<path opacity="0.5" d="M6.50343 5.97279C5.53159 6.78013 5.27609 8.14513 4.76393 10.8763L3.88893 15.543C3.16909 19.3836 2.80859 21.304 3.85859 22.5686C4.90859 23.8333 6.86042 23.8333 10.7688 23.8333H17.2321C21.1404 23.8333 23.0946 23.8333 24.1434 22.5686C25.1934 21.304 24.8329 19.3836 24.1131 15.543L23.2381 10.8763C22.7259 8.14629 22.4704 6.78013 21.4986 5.97279C20.5256 5.16663 19.1373 5.16663 16.3571 5.16663H11.6438C8.86476 5.16663 7.47643 5.16663 6.50343 5.97279Z" fill="#8E9BAE"/>
<path d="M13.9996 11.2917C13.4566 11.2918 12.927 11.1236 12.4836 10.8102C12.0402 10.4968 11.7049 10.0536 11.5239 9.54167C11.487 9.43158 11.4286 9.32994 11.352 9.24267C11.2754 9.1554 11.1822 9.08424 11.0778 9.03335C10.9735 8.98246 10.86 8.95285 10.7441 8.94624C10.6282 8.93964 10.5121 8.95617 10.4026 8.99488C10.2932 9.03359 10.1925 9.0937 10.1065 9.17171C10.0205 9.24972 9.95086 9.34406 9.90168 9.44925C9.85251 9.55443 9.82476 9.66836 9.82005 9.78437C9.81535 9.90039 9.83378 10.0162 9.87428 10.125C10.1759 10.9782 10.7347 11.717 11.4736 12.2395C12.2125 12.762 13.0952 13.0425 14.0002 13.0425C14.9052 13.0425 15.7879 12.762 16.5268 12.2395C17.2657 11.717 17.8245 10.9782 18.1261 10.125C18.1666 10.0162 18.185 9.90039 18.1803 9.78437C18.1756 9.66836 18.1479 9.55443 18.0987 9.44925C18.0495 9.34406 17.9799 9.24972 17.8939 9.17171C17.8079 9.0937 17.7072 9.03359 17.5978 8.99488C17.4883 8.95617 17.3722 8.93964 17.2563 8.94624C17.1404 8.95285 17.0269 8.98246 16.9225 9.03335C16.8182 9.08424 16.725 9.1554 16.6484 9.24267C16.5718 9.32994 16.5134 9.43158 16.4764 9.54167C16.2954 10.0538 15.9599 10.4971 15.5163 10.8105C15.0727 11.124 14.5428 11.2921 13.9996 11.2917Z" fill="#8E9BAE"/>
</svg>
