<svg width="24" height="25" viewBox="0 0 24 25" fill="none" xmlns="http://www.w3.org/2000/svg">
<path d="M20.3125 13.1475L20.8295 11.2155C21.4335 8.96046 21.7365 7.83346 21.5095 6.85746C21.3295 6.08695 20.9252 5.38711 20.3475 4.84646C19.6165 4.16146 18.4885 3.85946 16.2335 3.25546C13.9785 2.65046 12.8505 2.34846 11.8755 2.57546C11.105 2.75537 10.4051 3.15975 9.86446 3.73746C9.27746 4.36346 8.97146 5.28046 8.51646 6.94646L8.27246 7.85146L7.75546 9.78346C7.15046 12.0385 6.84846 13.1655 7.07546 14.1415C7.25537 14.912 7.65975 15.6118 8.23746 16.1525C8.96846 16.8375 10.0965 17.1395 12.3515 17.7445C14.3835 18.2885 15.5005 18.5875 16.4155 18.4745C16.5155 18.4618 16.6135 18.4445 16.7095 18.4225C17.4797 18.2431 18.1795 17.8394 18.7205 17.2625C19.4055 16.5305 19.7075 15.4025 20.3125 13.1475Z" fill="#8E9BAE"/>
<path opacity="0.5" d="M16.4155 18.4753C16.2063 19.1153 15.8389 19.6921 15.3475 20.1523C14.6165 20.8373 13.4885 21.1393 11.2335 21.7433C8.97846 22.3473 7.85046 22.6503 6.87546 22.4223C6.10507 22.2427 5.40524 21.8386 4.86446 21.2613C4.17946 20.5303 3.87646 19.4023 3.27246 17.1473L2.75546 15.2153C2.15046 12.9603 1.84846 11.8323 2.07546 10.8573C2.25537 10.0868 2.65975 9.38697 3.23746 8.84631C3.96846 8.16131 5.09646 7.85931 7.35146 7.25431C7.77679 7.13965 8.16512 7.03665 8.51646 6.94531L8.27246 7.85131L7.75546 9.78331C7.15046 12.0383 6.84846 13.1653 7.07546 14.1413C7.25537 14.9118 7.65975 15.6117 8.23746 16.1523C8.96846 16.8373 10.0965 17.1393 12.3515 17.7443C14.3835 18.2883 15.5005 18.5883 16.4155 18.4753Z" fill="#8E9BAE"/>
</svg>
