<svg width="24" height="24" viewBox="0 0 24 24" fill="none" xmlns="http://www.w3.org/2000/svg">
<path d="M20.3125 12.6475L20.8295 10.7155C21.4335 8.46046 21.7365 7.33346 21.5095 6.35746C21.3295 5.58695 20.9252 4.88711 20.3475 4.34646C19.6165 3.66146 18.4885 3.35946 16.2335 2.75546C13.9785 2.15046 12.8505 1.84846 11.8755 2.07546C11.105 2.25537 10.4051 2.65975 9.86446 3.23746C9.27746 3.86346 8.97146 4.78046 8.51646 6.44646L8.27246 7.35146L7.75546 9.28346C7.15046 11.5385 6.84846 12.6655 7.07546 13.6415C7.25537 14.412 7.65975 15.1118 8.23746 15.6525C8.96846 16.3375 10.0965 16.6395 12.3515 17.2445C14.3835 17.7885 15.5005 18.0875 16.4155 17.9745C16.5155 17.9618 16.6135 17.9445 16.7095 17.9225C17.4797 17.7431 18.1795 17.3394 18.7205 16.7625C19.4055 16.0305 19.7075 14.9025 20.3125 12.6475Z" fill="white"/>
<path opacity="0.5" d="M16.4155 17.9753C16.2063 18.6153 15.8389 19.1921 15.3475 19.6523C14.6165 20.3373 13.4885 20.6393 11.2335 21.2433C8.97846 21.8473 7.85046 22.1503 6.87546 21.9223C6.10507 21.7427 5.40524 21.3386 4.86446 20.7613C4.17946 20.0303 3.87646 18.9023 3.27246 16.6473L2.75546 14.7153C2.15046 12.4603 1.84846 11.3323 2.07546 10.3573C2.25537 9.58681 2.65975 8.88697 3.23746 8.34631C3.96846 7.66131 5.09646 7.35931 7.35146 6.75431C7.77679 6.63965 8.16512 6.53665 8.51646 6.44531L8.27246 7.35131L7.75546 9.28331C7.15046 11.5383 6.84846 12.6653 7.07546 13.6413C7.25537 14.4118 7.65975 15.1117 8.23746 15.6523C8.96846 16.3373 10.0965 16.6393 12.3515 17.2443C14.3835 17.7883 15.5005 18.0883 16.4155 17.9753Z" fill="white"/>
</svg>
