<svg width="24" height="24" viewBox="0 0 24 24" fill="none" xmlns="http://www.w3.org/2000/svg">
<g clip-path="url(#clip0_13977_10412)">
<path opacity="0.5" fill-rule="evenodd" clip-rule="evenodd" d="M2.28125 18.2243C2.28125 17.997 2.37156 17.779 2.5323 17.6182C2.69305 17.4575 2.91106 17.3672 3.13839 17.3672H12.567C12.7943 17.3672 13.0123 17.4575 13.1731 17.6182C13.3338 17.779 13.4241 17.997 13.4241 18.2243V21.2243H2.28125V18.2243Z" fill="white"/>
<path fill-rule="evenodd" clip-rule="evenodd" d="M15.1712 11.282L16.9884 9.46484L23.4855 15.9586C23.6118 16.0763 23.7132 16.2182 23.7834 16.3759C23.8537 16.5336 23.8915 16.7039 23.8945 16.8765C23.8976 17.0492 23.8658 17.2206 23.8012 17.3807C23.7365 17.5408 23.6403 17.6862 23.5182 17.8083C23.3961 17.9304 23.2506 18.0267 23.0906 18.0913C22.9305 18.156 22.759 18.1878 22.5863 18.1847C22.4137 18.1817 22.2435 18.1439 22.0857 18.0736C21.928 18.0033 21.7861 17.902 21.6684 17.7757L15.1712 11.282ZM0.138672 22.5071C0.138672 22.1661 0.274131 21.8391 0.515249 21.598C0.756367 21.3569 1.08339 21.2214 1.42439 21.2214H14.2815C14.6225 21.2214 14.9495 21.3569 15.1907 21.598C15.4318 21.8391 15.5672 22.1661 15.5672 22.5071C15.5672 22.8481 15.4318 23.1751 15.1907 23.4163C14.9495 23.6574 14.6225 23.7928 14.2815 23.7928H1.42439C1.08339 23.7928 0.756367 23.6574 0.515249 23.4163C0.274131 23.1751 0.138672 22.8481 0.138672 22.5071Z" fill="white"/>
<path opacity="0.5" d="M6.64607 7.10429C6.40712 7.34309 6.21756 7.62664 6.08823 7.93872C5.9589 8.25081 5.89233 8.58532 5.89233 8.92315C5.89233 9.26097 5.9589 9.59548 6.08823 9.90757C6.21756 10.2197 6.40712 10.5032 6.64607 10.742L9.3615 13.4557C9.84371 13.9378 10.4976 14.2086 11.1795 14.2086C11.8614 14.2086 12.5153 13.9378 12.9975 13.4557L19.1432 7.31C19.6248 6.82786 19.8952 6.17429 19.8952 5.49286C19.8952 4.81143 19.6248 4.15786 19.1432 3.67572L16.4295 0.956862C16.1907 0.717908 15.9072 0.528351 15.5951 0.399021C15.283 0.269692 14.9485 0.203125 14.6106 0.203125C14.2728 0.203125 13.9383 0.269692 13.6262 0.399021C13.3141 0.528351 13.0306 0.717908 12.7918 0.956862L6.64607 7.10429Z" fill="white"/>
</g>
<defs>
<clipPath id="clip0_13977_10412">
<rect width="24" height="24" fill="white"/>
</clipPath>
</defs>
</svg>
