<svg width="45" height="45" viewBox="0 0 45 45" fill="none" xmlns="http://www.w3.org/2000/svg">
<rect width="45" height="45" rx="10" fill="#1C1D1F"/>
<path d="M23.5809 21.212L18.7949 14.502C18.7394 14.424 18.666 14.3605 18.581 14.3167C18.4959 14.2728 18.4016 14.25 18.3059 14.25H15.7799C15.6698 14.2501 15.5619 14.2806 15.4679 14.338C15.3739 14.3954 15.2976 14.4775 15.2472 14.5754C15.1968 14.6733 15.1743 14.7831 15.1822 14.893C15.1901 15.0028 15.228 15.1083 15.2919 15.198L21.4189 23.788M23.5809 21.212L29.7079 29.802C29.7718 29.8917 29.8097 29.9972 29.8176 30.107C29.8255 30.2169 29.803 30.3267 29.7526 30.4246C29.7022 30.5225 29.6258 30.6046 29.5319 30.662C29.4379 30.7194 29.33 30.7499 29.2199 30.75H26.6939C26.5982 30.75 26.5039 30.7272 26.4188 30.6833C26.3337 30.6395 26.2604 30.576 26.2049 30.498L21.4189 23.788M23.5809 21.212L29.4229 14.25M21.4189 23.788L15.5769 30.75" stroke="white" stroke-width="1.5" stroke-linecap="round" stroke-linejoin="round"/>
</svg>
