<svg width="46" height="45" viewBox="0 0 46 45" fill="none" xmlns="http://www.w3.org/2000/svg">
<rect x="0.5" width="45" height="45" rx="10" fill="#1C1D1F"/>
<path fill-rule="evenodd" clip-rule="evenodd" d="M23 14.5C23.855 14.5 24.732 14.522 25.582 14.558L26.586 14.606L27.547 14.663L28.447 14.724L29.269 14.788C30.1612 14.8559 31.0008 15.2364 31.64 15.8626C32.2791 16.4888 32.6768 17.3204 32.763 18.211L32.803 18.636L32.878 19.546C32.948 20.489 33 21.517 33 22.5C33 23.483 32.948 24.511 32.878 25.454L32.803 26.364L32.763 26.789C32.6768 27.6798 32.2789 28.5115 31.6396 29.1377C31.0002 29.7639 30.1604 30.1443 29.268 30.212L28.448 30.275L27.548 30.337L26.586 30.394L25.582 30.442C24.7218 30.4793 23.861 30.4986 23 30.5C22.139 30.4986 21.2782 30.4793 20.418 30.442L19.414 30.394L18.453 30.337L17.553 30.275L16.731 30.212C15.8388 30.1441 14.9992 29.7636 14.36 29.1374C13.7209 28.5112 13.3232 27.6796 13.237 26.789L13.197 26.364L13.122 25.454C13.0458 24.4711 13.0051 23.4858 13 22.5C13 21.517 13.052 20.489 13.122 19.546L13.197 18.636L13.237 18.211C13.3232 17.3206 13.7207 16.4891 14.3597 15.8629C14.9986 15.2368 15.838 14.8561 16.73 14.788L17.551 14.724L18.451 14.663L19.413 14.606L20.417 14.558C21.2775 14.5207 22.1387 14.5014 23 14.5ZM21 20.075V24.925C21 25.387 21.5 25.675 21.9 25.445L26.1 23.02C26.1914 22.9674 26.2673 22.8916 26.3201 22.8003C26.3729 22.709 26.4007 22.6055 26.4007 22.5C26.4007 22.3945 26.3729 22.291 26.3201 22.1997C26.2673 22.1084 26.1914 22.0326 26.1 21.98L21.9 19.556C21.8088 19.5033 21.7053 19.4756 21.5999 19.4756C21.4945 19.4756 21.3911 19.5034 21.2998 19.5561C21.2086 19.6088 21.1329 19.6846 21.0802 19.7759C21.0276 19.8671 20.9999 19.9706 21 20.076V20.075Z" fill="white"/>
</svg>
